<svg xmlns="http://www.w3.org/2000/svg" viewBox="0 0 32 32" width="32" height="32">
  <!-- Background circle -->
  <circle cx="16" cy="16" r="15" fill="#3b82f6" stroke="#1e40af" stroke-width="2"/>
  
  <!-- Letter B made with broken dashes -->
  <!-- Left vertical line of B -->
  <path d="M10 8h2M10 10h2M10 12h2M10 14h2M10 16h2M10 18h2M10 20h2M10 22h2M10 24h2" 
        stroke="white" stroke-width="2" stroke-linecap="round"/>
  
  <!-- Top curve of B -->
  <path d="M12 8h2M15 8h2M17 8h2M19 9h1M20 10h1M20 11h1M19 12h1M17 12h2M15 12h2M13 12h1" 
        stroke="white" stroke-width="2" stroke-linecap="round"/>
  
  <!-- Middle horizontal line of B -->
  <path d="M12 16h2M15 16h2M17 16h2M19 16h1" 
        stroke="white" stroke-width="2" stroke-linecap="round"/>
  
  <!-- Bottom curve of B -->
  <path d="M12 20h2M15 20h2M17 20h2M19 21h1M20 22h1M20 23h1M19 24h1M17 24h2M15 24h2M13 24h1" 
        stroke="white" stroke-width="2" stroke-linecap="round"/>
  
  <!-- Decorative broken circuit elements -->
  <path d="M6 6h2M8 8h2M26 6h2M24 8h2" stroke="white" stroke-width="1" stroke-linecap="round"/>
  <path d="M6 26h2M8 24h2M26 26h2M24 24h2" stroke="white" stroke-width="1" stroke-linecap="round"/>
</svg>
